<?xml version="1.0" encoding="UTF-8"?>
<!DOCTYPE svg PUBLIC "-//W3C//DTD SVG 1.1//EN" "http://www.w3.org/Graphics/SVG/1.1/DTD/svg11.dtd">
<!-- Creator: CorelDRAW -->
<svg xmlns="http://www.w3.org/2000/svg" xml:space="preserve" width="4.56059in" height="4.95263in" version="1.1" style="shape-rendering:geometricPrecision; text-rendering:geometricPrecision; image-rendering:optimizeQuality; fill-rule:evenodd; clip-rule:evenodd"
viewBox="0 0 895.9 972.91"
 xmlns:xlink="http://www.w3.org/1999/xlink"
 xmlns:xodm="http://www.corel.com/coreldraw/odm/2003">
 <defs>
  <style type="text/css">
   <![CDATA[
    .fil0 {fill:#FEFEFE}
    .fil2 {fill:#902139}
    .fil1 {fill:#FECCD8}
    .fil3 {fill:white}
   ]]>
  </style>
 </defs>
 <g id="Layer_x0020_1">
  <metadata id="CorelCorpID_0Corel-Layer"/>
  <path class="fil0" d="M292.37 583.23c3.11,-8.53 4.22,-20.93 6.96,-30.67 17.87,-63.52 65.46,-106.99 133.23,-123.59 43.53,-10.67 88.86,-4.71 124.87,12.06 27.96,13.02 64.74,39.55 77.41,68.33 30.63,-4.37 48.01,-9.25 75.96,5.01 53.3,27.2 83.8,124.67 42.23,180.17 -32.61,43.54 -80.78,37.75 -87.98,44.33 -1.79,1.64 -9.59,13 -20.34,23.05 -58.12,54.31 -188.13,83.22 -269.36,44.53 -14.66,-6.98 -12.8,-12.48 -28.57,-6.21 -33.58,13.35 -78.55,14.77 -105.1,-7.57 -14.81,-12.47 -28,-28.24 -36.35,-52.37 -27,-78.01 16.26,-150.28 87.04,-157.07zm-153.41 -220.42c83.74,-23.69 135.96,180.14 32.68,203.86 -26.49,6.08 -53.03,-5.69 -64.68,-18.98 -37.83,-43.2 -39.05,-164.77 32,-184.87zm550.22 -109.29c45.23,-13.49 82.01,43.01 94.73,76.36 48.78,127.89 -106.98,174.39 -138.68,47.87 -10.93,-43.63 -9.23,-108.36 43.95,-124.23zm-391.01 -73.7c91.9,-16.23 137.3,189.23 22.08,208.84 -29.06,4.94 -57.14,-8.04 -69.25,-22.8 -42.03,-51.24 -31.1,-172.22 47.16,-186.04zm180.82 -41.88c56.75,-13.5 91.8,38.9 106.36,78.72 18.65,50.99 16.36,107.36 -41.06,125.53 -119.42,37.78 -155.26,-182.85 -65.3,-204.25zm-112.03 -33.73c-16.63,2.27 -13.68,-7.89 -39.16,-17.3 -16.36,-6.04 -30.34,-7.79 -48.58,-5.63 -20.45,2.43 -55.8,17.77 -68.59,29.32 -37.37,33.78 -59.36,67.85 -57.18,126.18 0.92,24.62 -14.18,15.43 -33.77,20.92 -47.16,13.23 -84.71,72.3 -92.54,132.44 -14.71,113.1 31.47,315.14 97.41,404.42 4,5.42 7.36,11.32 11.69,16.73 101.83,127.33 262.22,165.04 433.62,119.45 67.33,-17.91 122.57,-44.88 169.47,-83.73 5.59,-4.63 10.23,-7.5 16.02,-12.28 25.26,-20.86 58.54,-64.39 73.59,-94.55 60.31,-120.9 48.3,-246.5 16.64,-381.39 -14.05,-59.85 -34.29,-118.53 -65.55,-159.3 -9.57,-12.49 -15.36,-21.19 -26.49,-30.08 -8.89,-7.1 -22,-16.66 -34.23,-22.52 -54.97,-26.31 -75.81,4.87 -87.05,-16.78 -15.32,-29.51 -25.42,-49.69 -45.65,-67.71 -45.29,-40.35 -113.85,-51.68 -168.81,-18.64 -42.27,25.41 -37.75,50.38 -50.85,60.42z"/>
  <path class="fil1" d="M430.8 479.7c22.46,-8.61 75.9,4.27 62.02,66.69 -5.95,26.75 -28.83,43.25 -50.27,54.73 -24.87,13.31 -62.9,17 -80.3,-0.75 -11.36,-11.59 -12.09,-36.49 -6,-55.69 7.95,-25.06 19.78,-37.09 37.09,-50.94 11.51,-9.21 29.78,-11.09 37.47,-14.04zm28.94 -32.17c-36.28,4.04 -58.27,15.08 -82.6,31.64 -20.47,13.93 -38.02,35.26 -49.97,63.46 -5.76,13.59 -9.61,29.48 -11.15,45.58 -2.68,27.96 -13.53,15.14 -35.47,21.1 -63.05,17.13 -78.61,99.22 -42.45,147.28 47.11,62.61 107.23,10.54 124.24,15.4 5.41,1.55 14.05,11.84 37.07,19.75 32.85,11.28 66.49,12.66 102.66,7.05 61.19,-9.49 113.85,-29.87 147.77,-79.03 9.93,-14.39 50.29,-0.06 80.43,-32.88 45.92,-50 9.1,-178.49 -80.56,-156.26 -28.76,7.13 -20.5,11 -35.19,-12.51 -8.21,-13.14 -14.96,-22.54 -25.8,-30.88 -5.24,-4.03 -10.64,-7.88 -16.29,-12.08 -26,-19.31 -75.87,-31.72 -112.69,-27.62z"/>
  <path class="fil2" d="M366.96 104.19c13.1,-10.04 8.58,-35.02 50.85,-60.42 54.96,-33.03 123.52,-21.71 168.81,18.64 20.22,18.02 30.33,38.2 45.65,67.71 11.24,21.64 32.08,-9.53 87.05,16.78 12.24,5.86 25.34,15.42 34.23,22.52 11.13,8.89 16.92,17.59 26.49,30.08 31.25,40.77 51.5,99.45 65.55,159.3 31.66,134.89 43.67,260.49 -16.64,381.39 -15.05,30.17 -48.33,73.69 -73.59,94.55 -5.79,4.78 -10.43,7.65 -16.02,12.28 -46.9,38.84 -102.14,65.81 -169.47,83.73 -171.4,45.59 -331.79,7.87 -433.62,-119.45 -4.32,-5.41 -7.68,-11.31 -11.69,-16.73 -65.93,-89.28 -112.12,-291.32 -97.41,-404.42 7.83,-60.15 45.38,-119.22 92.54,-132.44 19.58,-5.49 34.68,3.71 33.77,-20.92 -2.18,-58.33 19.81,-92.4 57.18,-126.18 12.79,-11.56 48.14,-26.9 68.59,-29.32 18.24,-2.16 32.21,-0.41 48.58,5.63 25.48,9.4 22.53,19.57 39.16,17.3zm-9.05 -30.77c-12.32,-3.25 -22.97,-10.38 -38.2,-14 -45.19,-10.75 -87.87,7.63 -122.2,30.57 -43.95,29.38 -66.69,86.7 -68.48,141.3 -47.89,6.69 -78.12,37.75 -100.86,78.43 -64.04,114.56 -5.44,336.82 42.53,440.5 13.6,29.4 30.98,57 51.87,82.19l21.15 24.23c163.95,178.35 493.4,135.49 643.55,-20.2 26.97,-27.97 53.87,-61.01 73.44,-106.03 19.61,-45.11 30.66,-90 34.29,-144.29 6.82,-102.06 -25.98,-285.31 -75.68,-371.12 -6.27,-10.82 -11.15,-17.68 -17.89,-27.4 -16.35,-23.58 -45.87,-51.24 -72.73,-63.3 -27.58,-12.39 -45.36,-13.53 -78.81,-11.8 -6.01,-19.45 -35.13,-56.99 -49.82,-69.27 -53.06,-44.38 -113.16,-56.39 -180.29,-27.62 -24.29,10.41 -53.75,32.52 -61.88,57.81z"/>
  <path class="fil2" d="M459.74 447.53c36.82,-4.1 86.68,8.31 112.69,27.62 5.65,4.2 11.05,8.05 16.29,12.08 10.83,8.34 17.59,17.74 25.8,30.88 14.69,23.52 6.43,19.64 35.19,12.51 89.65,-22.23 126.47,106.26 80.56,156.26 -30.15,32.83 -70.51,18.5 -80.43,32.88 -33.92,49.16 -86.58,69.54 -147.77,79.03 -36.17,5.61 -69.8,4.23 -102.66,-7.05 -23.02,-7.9 -31.66,-18.2 -37.07,-19.75 -17.01,-4.87 -77.14,47.21 -124.24,-15.4 -36.16,-48.06 -20.6,-130.15 42.45,-147.28 21.94,-5.96 32.79,6.85 35.47,-21.1 1.54,-16.11 5.39,-32 11.15,-45.58 11.95,-28.2 29.5,-49.53 49.97,-63.46 24.33,-16.56 46.32,-27.6 82.6,-31.64zm-167.36 135.7c-70.78,6.8 -114.04,79.06 -87.04,157.07 8.35,24.13 21.54,39.91 36.35,52.37 26.55,22.35 71.52,20.92 105.1,7.57 15.77,-6.27 13.91,-0.77 28.57,6.21 81.23,38.69 211.24,9.78 269.36,-44.53 10.75,-10.05 18.55,-21.41 20.34,-23.05 7.21,-6.58 55.37,-0.79 87.98,-44.33 41.57,-55.51 11.07,-152.97 -42.23,-180.17 -27.95,-14.27 -45.33,-9.39 -75.96,-5.01 -12.68,-28.78 -49.45,-55.31 -77.41,-68.33 -36.01,-16.76 -81.34,-22.73 -124.87,-12.06 -67.77,16.6 -115.36,60.08 -133.23,123.59 -2.74,9.73 -3.85,22.14 -6.96,30.67z"/>
  <path class="fil1" d="M482.68 158.98c-61.18,18.15 -30.68,198.36 58.96,161.66 15.29,-6.26 29.03,-20.13 32.26,-39.47 6.85,-41.09 -34.44,-139.04 -91.22,-122.19z"/>
  <path class="fil3" d="M430.8 479.7c-7.69,2.95 -25.96,4.83 -37.47,14.04 -17.3,13.85 -29.13,25.88 -37.09,50.94 -6.09,19.21 -5.36,44.1 6,55.69 17.4,17.75 55.43,14.06 80.3,0.75 21.44,-11.48 44.32,-27.98 50.27,-54.73 13.88,-62.42 -39.56,-75.31 -62.02,-66.69z"/>
  <path class="fil1" d="M143.07 384.73c-55.77,16.02 -53.96,178.07 23.7,159.93 34.19,-7.99 44.67,-49.79 36.52,-89.52 -6.32,-30.86 -25.68,-80.33 -60.22,-70.41z"/>
  <path class="fil1" d="M294.27 220.47c26.24,-10.27 44.93,66.37 5.9,73.96 -36.42,7.08 -43.13,-59.39 -5.9,-73.96zm6.75 -20.31c-72.41,15.27 -73.41,184.49 16.28,168.07 88.89,-16.27 45.09,-181.01 -16.28,-168.07z"/>
  <path class="fil1" d="M663.84 353.8c11.71,108.21 127.18,96.8 103.21,-1.36 -7.49,-30.68 -31.99,-68.8 -53.46,-77.04 -21.15,-8.11 -37.03,7.21 -43.6,20.57 -7.7,15.67 -8.16,39.23 -6.14,57.83z"/>
  <path class="fil2" d="M482.68 158.98c56.78,-16.85 98.07,81.1 91.22,122.19 -3.22,19.33 -16.97,33.21 -32.26,39.47 -89.64,36.7 -120.14,-143.5 -58.96,-161.66zm-3.7 -21.06c-89.97,21.41 -54.12,242.04 65.3,204.25 57.42,-18.17 59.71,-74.55 41.06,-125.53 -14.56,-39.82 -49.61,-92.23 -106.36,-78.72z"/>
  <path class="fil2" d="M143.07 384.73c34.54,-9.92 53.89,39.56 60.22,70.41 8.15,39.73 -2.33,81.53 -36.52,89.52 -77.65,18.14 -79.47,-143.92 -23.7,-159.93zm-4.11 -21.92c-71.05,20.1 -69.83,141.68 -32,184.87 11.65,13.29 38.19,25.07 64.68,18.98 103.28,-23.72 51.06,-227.55 -32.68,-203.86z"/>
  <path class="fil2" d="M301.01 200.15c61.37,-12.94 105.18,151.8 16.28,168.07 -89.7,16.42 -88.7,-152.8 -16.28,-168.07zm-2.85 -20.35c-78.27,13.82 -89.2,134.79 -47.16,186.04 12.11,14.76 40.19,27.74 69.25,22.8 115.22,-19.6 69.82,-225.06 -22.08,-208.84z"/>
  <path class="fil2" d="M663.84 353.8c-2.01,-18.6 -1.56,-42.16 6.14,-57.83 6.57,-13.36 22.46,-28.68 43.6,-20.57 21.47,8.24 45.97,46.35 53.46,77.04 23.97,98.16 -91.5,109.58 -103.21,1.36zm25.34 -100.29c-53.19,15.86 -54.89,80.6 -43.95,124.23 31.7,126.52 187.46,80.02 138.68,-47.87 -12.72,-33.35 -49.5,-89.85 -94.73,-76.36z"/>
  <path class="fil3" d="M294.27 220.47c-37.23,14.57 -30.52,81.04 5.9,73.96 39.03,-7.58 20.34,-84.23 -5.9,-73.96z"/>
 </g>
</svg>
